<svg width="58" height="21" viewBox="0 0 58 21" fill="none" xmlns="http://www.w3.org/2000/svg">
<g clip-path="url(#clip0_1504_321)">
<path d="M37.9189 1.21043C37.7561 1.2105 37.595 1.24377 37.4447 1.30834C37.2944 1.3729 37.1578 1.4675 37.0428 1.58671C36.8156 1.82188 36.6792 2.15407 36.6792 2.49507V18.0008C36.6792 18.3418 36.8099 18.6681 37.0428 18.9092C37.1579 19.0284 37.2945 19.1229 37.4448 19.1874C37.5952 19.252 37.7564 19.2852 37.9192 19.2852C38.0819 19.2852 38.2431 19.252 38.3935 19.1874C38.5438 19.1229 38.6804 19.0284 38.7955 18.9092C39.0227 18.674 39.1591 18.3418 39.1591 18.0008V2.49449C39.1591 2.15348 39.0284 1.82718 38.7955 1.58612C38.6804 1.46684 38.5438 1.37221 38.3934 1.30764C38.243 1.24307 38.0817 1.20984 37.9189 1.20984V1.21043ZM19.0336 6.67591C19.0336 5.96686 18.4786 5.39185 17.7951 5.39185C17.1117 5.39185 16.5566 5.96686 16.5566 6.67591V17.9996C16.5566 18.7087 17.1117 19.2837 17.7951 19.2837C18.4786 19.2837 19.0336 18.7087 19.0336 17.9996V6.67591Z" fill="#5A646E"/>
<path d="M19.3837 2.49683C19.3756 2.92761 19.2047 3.33795 18.9076 3.63978C18.6106 3.94127 18.2112 4.11016 17.7952 4.11016C17.3792 4.11016 16.9798 3.94127 16.6829 3.63978C16.3858 3.33795 16.2148 2.92761 16.2068 2.49683C16.2066 2.06029 16.374 1.64156 16.6721 1.33271C16.8194 1.17981 16.9944 1.0585 17.1871 0.975723C17.3797 0.89295 17.5863 0.850342 17.795 0.850342C18.0036 0.850342 18.2102 0.89295 18.4028 0.975723C18.5955 1.0585 18.7705 1.17981 18.9178 1.33271C19.2159 1.64156 19.3833 2.06029 19.3831 2.49683H19.3837Z" fill="#1CB3E4"/>
<path d="M34.4398 9.48979C33.249 6.69942 30.4317 4.72747 27.2174 5.06848C26.1336 5.18703 25.0912 5.56375 24.1717 6.1691C23.2519 6.77486 22.4799 7.59265 21.9163 8.55849C21.3524 9.52487 21.0119 10.613 20.9215 11.7381C20.8306 12.8634 20.9931 13.9958 21.3948 15.0446C21.7963 16.0938 22.4269 17.0327 23.2371 17.788C24.0472 18.5426 25.0149 19.0932 26.0647 19.3966C27.1143 19.6998 28.2175 19.7472 29.2878 19.5351C30.358 19.3229 31.3662 18.8569 32.2332 18.1737C32.3791 18.0579 32.4981 17.9098 32.5815 17.7403C32.665 17.571 32.711 17.3841 32.7156 17.1936C32.7249 16.8557 32.6043 16.5279 32.3803 16.282C32.1563 16.0361 31.8472 15.8922 31.5208 15.8819C31.2403 15.8726 30.9652 15.963 30.7414 16.1382C29.8833 16.824 28.8166 17.1697 27.7338 17.113C26.8543 17.0666 26.0064 16.7594 25.2909 16.2282C24.5723 15.6976 24.0147 14.9661 23.6837 14.1192C23.6385 14.0051 23.6358 13.8776 23.6759 13.7615C23.7161 13.6454 23.7964 13.5487 23.9013 13.4901C23.9708 13.4515 24.0485 13.4313 24.1274 13.4313H32.7315C33.146 13.4331 33.5517 13.3072 33.8969 13.0696C34.2421 12.8321 34.5111 12.4936 34.6699 12.0973C34.7756 11.8342 34.8303 11.5521 34.8307 11.2671C34.8133 10.6555 34.6833 10.0528 34.4477 9.49155L34.4398 9.48979ZM27.9491 7.57781C28.8702 7.57804 29.7701 7.86437 30.5323 8.39975C31.295 8.93575 31.8847 9.69619 32.2253 10.5828C32.254 10.6584 32.2648 10.7401 32.2565 10.8209C32.248 10.9016 32.2206 10.979 32.1766 11.0463C32.1326 11.1136 32.0735 11.1688 32.0043 11.2072C31.9351 11.2455 31.8578 11.2657 31.7793 11.266H24.1183C24.0397 11.2661 23.9624 11.2458 23.8933 11.2072C23.824 11.1684 23.7649 11.1131 23.7206 11.0466C23.6763 10.9802 23.649 10.902 23.6411 10.8209C23.6328 10.7401 23.6436 10.6584 23.6723 10.5828C24.0129 9.69619 24.6026 8.93575 25.3653 8.39975C26.1287 7.86704 27.0278 7.58097 27.9485 7.57781H27.9491ZM48.0734 17.1177C47.1903 17.1179 46.3258 16.8548 45.5834 16.3599C44.8402 15.8629 44.2491 15.1573 43.879 14.3256C43.5129 13.4928 43.3857 12.5686 43.5126 11.6631C43.6395 10.7577 44.0151 9.90899 44.5948 9.21816L42.7201 7.56193C42.1131 8.29147 41.6516 9.13809 41.3623 10.053C41.0722 10.968 40.9592 11.9332 41.0299 12.8934C41.1004 13.8535 41.3537 14.7901 41.7685 15.649C42.189 16.5076 42.7691 17.2719 43.4756 17.8979C44.1818 18.5238 45.0004 18.9993 45.8845 19.2972C46.7682 19.595 47.7002 19.7089 48.6267 19.6323C49.5534 19.5558 50.4563 19.29 51.2832 18.8504C52.1106 18.4111 52.846 17.8071 53.4472 17.073L51.5724 15.4174C51.141 15.9502 50.6019 16.3784 49.9931 16.6721C49.3847 16.9658 48.7214 17.1178 48.0501 17.1171L48.0734 17.1177Z" fill="#5A646E"/>
<path d="M48.0736 5.02503C47.0599 5.02374 46.0579 5.24937 45.1364 5.68646C44.2142 6.12366 43.3941 6.76181 42.7322 7.55729L44.6013 9.21351C45.3974 8.26401 46.5241 7.67889 47.7355 7.58582C48.9469 7.49275 50.1447 7.89927 51.0675 8.7167C51.9906 9.53552 52.5643 10.6982 52.664 11.9521C52.763 13.2063 52.3795 14.4502 51.597 15.4133L53.4661 17.069C54.3358 16.0032 54.8936 14.7027 55.0739 13.3203C55.2539 11.9375 55.0485 10.5302 54.4819 9.26407C53.9156 7.99852 53.0114 6.92692 51.876 6.17563C50.7394 5.42712 49.4208 5.0281 48.0736 5.02503Z" fill="#1CB3E4"/>
<path d="M14.2729 16.1959C14.0593 16.0043 13.7889 15.8941 13.5065 15.8835C13.224 15.8729 12.9466 15.9626 12.7202 16.1377C12.0389 16.6773 11.2253 17.0088 10.3714 17.0948C9.51757 17.1809 8.65747 17.0179 7.8884 16.6245C7.11924 16.2303 6.47141 15.6222 6.01759 14.8683C5.56385 14.1136 5.3227 13.2428 5.32129 12.354C5.31989 11.4651 5.55828 10.5935 6.00964 9.8373C6.46064 9.08165 7.10661 8.47137 7.87476 8.07525C8.64253 7.67874 9.50226 7.5127 10.3565 7.59593C11.2108 7.67917 12.0255 8.00835 12.7083 8.54619C12.932 8.72468 13.2082 8.81822 13.4907 8.81116C13.7731 8.80409 14.0446 8.69685 14.2598 8.50739C14.399 8.38392 14.5098 8.23105 14.5836 8.05879C14.6575 7.88652 14.695 7.69838 14.6916 7.50906C14.6882 7.31975 14.6427 7.13396 14.5609 6.96522C14.4791 6.79648 14.3609 6.64773 14.2172 6.5325C13.1706 5.70335 11.9205 5.19416 10.6085 5.06265C9.29611 4.93067 7.97423 5.18224 6.79304 5.78877C5.61185 6.3953 4.61869 7.33248 3.92637 8.49386C3.233 9.65536 2.86684 10.9942 2.86915 12.3594C2.87146 13.7247 3.24214 15.0622 3.93943 16.2212C4.63653 17.3789 5.63293 18.3116 6.8158 18.9135C7.99867 19.5155 9.32077 19.7627 10.6324 19.6271C11.9438 19.491 13.1921 18.9775 14.2359 18.1449C14.3778 18.0297 14.4932 17.8834 14.5736 17.7164C14.6541 17.5495 14.6977 17.366 14.7012 17.1795C14.7048 16.993 14.6683 16.808 14.5943 16.6378C14.5204 16.4677 14.4107 16.3167 14.2734 16.1959H14.2729Z" fill="#5A646E"/>
</g>
<defs>
<clipPath id="clip0_1504_321">
<rect width="58" height="20" fill="white" transform="translate(0 0.691406)"/>
</clipPath>
</defs>
</svg>
