<svg width="46" height="21" viewBox="0 0 46 21" fill="none" xmlns="http://www.w3.org/2000/svg">
<path d="M1.43521 16.7111C1.22955 16.4223 0.955331 15.9609 0.78596 15.6192C-0.202039 13.6185 -0.246398 11.5473 0.584327 9.56073C1.49974 7.38038 3.2499 5.7143 5.51222 4.86189C8.35524 3.79461 11.4967 4.00243 14.2227 5.4149C15.9527 6.2814 17.1787 7.6199 18.1102 9.51494C18.2272 9.75798 18.332 10.0151 18.4369 10.237L1.43521 16.7111ZM7.11318 8.07781C5.09283 8.83512 4.0524 10.4906 4.27017 12.4279L12.8194 9.21201C11.3475 7.70444 9.43599 7.20426 7.11318 8.07781ZM13.884 15.0732C13.88 15.0732 13.88 15.0768 13.88 15.0768L13.7025 14.9711C13.1904 15.6932 12.396 16.2814 11.3918 16.6618C9.48035 17.3874 7.71001 17.2007 6.4357 16.225L6.31875 16.38C6.31875 16.38 6.31875 16.3765 6.31472 16.3765L4.14515 19.212C4.68553 19.5396 5.2622 19.8143 5.86709 20.0362C8.26249 20.9063 10.7143 20.864 13.1299 19.9482C14.876 19.286 16.2471 18.2786 17.1827 17L13.884 15.0732ZM24.3769 0.691406V16.4505L27.1837 17.4438L25.5908 20.6914L22.4937 19.5642C21.8001 19.3001 21.3242 18.8985 20.9694 18.4441C20.6266 17.9827 20.3725 17.3452 20.3725 16.4927V0.691406H24.3769ZM31.6438 12.4385C31.6438 11.0965 32.3253 9.89183 33.398 9.07464L30.5187 6.27084C28.5669 7.77841 27.3369 9.97989 27.3369 12.4315C27.3329 14.8865 28.5628 17.0915 30.5106 18.5991L33.3859 15.7953C32.3172 14.9746 31.6438 13.777 31.6438 12.4385ZM36.7572 16.9084C36.1926 16.9084 35.6442 16.8238 35.136 16.6759L33.7609 20.2441C34.7005 20.5188 35.7047 20.6703 36.7531 20.6703C41.31 20.6738 45.1128 17.8489 45.996 14.0975L41.7697 13.3437C41.2899 15.3832 39.2292 16.9119 36.7572 16.9084ZM36.7693 4.20673C35.7248 4.20673 34.7207 4.35467 33.7811 4.62589L35.1441 8.19757C35.6563 8.04963 36.2007 7.96862 36.7652 7.96862C39.2413 7.97214 41.306 9.50789 41.7738 11.5509L46 10.8041C45.133 7.04576 41.3302 4.21025 36.7693 4.20673Z" fill="white"/>
</svg>
