<svg width="120" height="25" viewBox="0 0 120 25" fill="none" xmlns="http://www.w3.org/2000/svg">
<g clip-path="url(#clip0_1504_343)">
<path d="M32.9478 0H20.5135C15.0192 0.124355 10.5282 1.18368 9.23143 3.36819C8.55526 4.50745 8.18315 5.75867 7.65442 6.93965C4.96649 12.9445 2.58308 19.1149 0.0119629 25H96.8175C104.301 25 109.44 24.2429 110.829 21.3993C111.474 20.0784 112.092 18.5825 112.709 17.1312C115.115 11.4729 117.523 5.81493 119.988 0H32.9478Z" fill="#822124"/>
<path d="M31.9773 8.885C32.4973 8.71352 33.1671 7.93256 32.4019 7.60741C32.1596 7.50447 31.7543 7.47459 31.1888 7.52037C30.6643 7.56276 30.3626 7.64811 30.1577 7.78171C29.8284 7.99648 29.5263 8.64441 30.0364 8.88512C30.5333 9.1194 31.6464 8.99403 31.9773 8.885ZM24.5774 7.60741C24.2048 8.76471 23.7851 9.89946 23.3643 11.0337C20.6622 11.0473 17.9034 11.0975 15.2972 11.0046C15.7894 9.89495 16.1424 8.7186 16.6316 7.60741H13.7202C12.678 10.4379 11.7298 13.3136 10.5662 16.086H13.5384C14.0044 14.664 14.4406 13.2273 15.0546 11.8757C17.5887 11.8459 20.6259 11.7938 23.0612 11.9048C22.559 13.3099 21.9524 14.6646 21.4842 16.086H24.4564C25.4116 13.2136 26.4175 10.3659 27.6106 7.60741H24.5774ZM66.6114 10.0465C64.2989 9.59934 62.4807 10.3549 61.6378 11.0627C61.829 10.7479 61.9077 10.3791 62.0627 10.0465H59.7577C59.1941 12.1384 58.3637 14.1024 57.5742 16.086H60.1825C60.5481 14.9086 60.7059 13.3214 61.5167 12.1951C62.1649 11.2951 63.861 10.5283 66.3085 10.9466C66.3424 10.6146 66.541 10.3611 66.6114 10.0465ZM68.0669 14.6633C67.8264 14.3659 67.7645 13.875 67.8245 13.5017C67.9592 12.6628 68.598 11.6413 69.5836 11.1789C70.9437 10.5406 73.6288 10.6463 75.7706 11.0047C75.8367 10.6591 75.9818 10.3509 76.0739 10.0175C72.5614 9.74286 69.2284 9.91378 67.4611 10.8015C65.7308 11.6705 64.597 13.6679 65.3985 14.9246C66.3368 16.3952 70.5445 16.4752 73.951 15.9119C74.1017 15.6163 74.1815 15.2868 74.3148 14.9828C72.4531 15.4456 68.8942 15.6862 68.0669 14.6633ZM97.3635 10.0755C95.0583 9.52369 93.1391 10.4495 92.3899 11.0046C92.6033 10.7198 92.6155 10.3384 92.8143 10.0464H90.5096C89.888 12.1202 89.1391 14.1328 88.2656 16.0859H90.9344C90.9511 15.2854 91.2797 14.6933 91.5406 13.9084C92.0983 12.2321 92.9174 10.394 97.0001 10.9465C97.135 10.6631 97.1913 10.3415 97.3635 10.0755ZM29.3084 10.0465C29.2378 10.0513 29.2425 10.0924 29.2477 10.1335C28.673 12.191 27.8951 14.1513 27.0642 16.0859H29.6723C30.299 14.0146 31.0169 11.9871 31.9165 10.0464L29.3084 10.0465ZM52.236 9.93035C50.3514 9.99992 48.7584 10.2595 47.6263 10.8305C46.2377 11.5307 45.1134 13.079 45.4428 14.4891C45.9129 16.5007 51.1449 16.4284 55.3295 15.9409C55.4009 15.5878 55.5794 15.286 55.6934 14.9536C53.9697 15.2624 50.9765 15.6934 49.2031 15.157C47.8644 14.7517 47.8566 13.7258 48.2933 12.834C51.1058 12.7912 54.029 12.7993 56.8455 12.834C57.024 12.202 57.5354 11.5129 57.0881 10.8887C56.4984 10.0645 54.3858 9.85098 52.236 9.93035ZM54.7228 12.1371H48.5964C48.7905 11.4629 50.0575 10.7218 52.054 10.6853C53.9329 10.6509 55.2782 11.0155 54.7228 12.1371ZM42.3494 10.0465C40.1419 9.64951 37.4516 10.1234 36.2851 10.5741C36.2893 10.594 36.2573 10.5967 36.2229 10.5981C36.2427 10.5901 36.2644 10.5821 36.2851 10.5741C36.2849 10.5725 36.2845 10.5708 36.2839 10.5692C36.3035 10.3753 36.4459 10.2403 36.4657 10.0465H34.2215C33.2863 13.025 32.1772 15.9203 31.007 18.7863H33.6151C33.9926 17.6701 34.2418 16.4925 34.7677 15.4472C35.3633 16.5467 39.2526 16.3366 40.8939 15.9118C44.2799 15.0351 46.8917 10.8632 42.3494 10.0465ZM40.2872 14.9536C38.8918 15.6611 35.4613 15.6505 35.1921 14.4599C35.075 13.942 35.478 13.3989 35.6777 12.863C35.8791 12.3206 36.0244 11.8002 36.2231 11.3241C37.5976 10.5207 41.6365 10.4236 42.0462 11.7596C42.4016 12.9195 41.4426 14.3677 40.2872 14.9536ZM107.068 7.43322C106.845 8.37146 106.546 9.27374 106.159 10.1335C99.7608 9.16404 95.8374 11.4174 95.908 14.1987C95.9219 14.7366 96.1153 15.27 96.8176 15.6505C98.0291 16.3059 101.496 16.463 103.247 15.9117C103.586 15.805 103.932 15.6109 104.157 15.4763C104.326 15.3749 104.594 15.1094 104.642 15.1859C104.55 15.4804 104.412 15.7535 104.4 16.0859H106.765C107.222 12.9552 108.631 10.2813 109.677 7.43311H107.068V7.43322H107.068ZM101.245 15.4181C99.4897 15.4361 98.6167 14.9159 98.5764 14.0535C98.5065 12.5429 99.8906 10.8648 102.701 10.7143C104.01 10.6442 104.957 10.7899 105.916 10.9466C105.036 12.6434 105.353 15.3759 101.245 15.4181ZM78.7423 10.0465C78.6139 10.3915 78.4168 10.7037 78.2571 11.0337C79.7962 10.8489 84.5887 10.2825 85.0506 11.2659C85.2039 11.5926 84.9394 11.9398 84.7472 12.1951C80.4137 11.9986 76.8815 12.3433 75.9521 13.8211C75.3299 14.811 76.0219 15.7851 77.3473 16.057C79.9001 16.5806 83.0051 15.9808 84.08 15.157C83.9684 15.4421 83.8626 15.7304 83.8984 16.086H86.1424C86.1664 15.0571 86.4792 14.2243 86.8096 13.2984C87.0913 12.51 87.6214 11.7295 87.5376 11.0337C87.3445 9.44004 81.8294 10.0038 78.7423 10.0465ZM82.9882 14.9245C81.6441 15.5544 77.8711 15.7333 78.2571 14.2277C78.5774 12.9771 81.422 12.7114 84.5042 12.8919C84.2752 13.576 84.0124 14.4446 82.9882 14.9245Z" fill="white"/>
</g>
<defs>
<clipPath id="clip0_1504_343">
<rect width="120" height="25" fill="white"/>
</clipPath>
</defs>
</svg>
