<svg width="49" height="29" viewBox="0 0 49 29" fill="none" xmlns="http://www.w3.org/2000/svg">
<path d="M47.4315 20.4773C47.4315 21.6736 45.612 23.1442 44.1322 23.1442H42.7847C42.7862 15.8227 42.7862 7.61472 42.7847 6.15779C42.7842 6.11465 42.7945 6.07185 42.815 6.03183C42.8356 5.99181 42.866 5.95537 42.9045 5.92459C42.943 5.8938 42.9889 5.86928 43.0395 5.85243C43.0902 5.83559 43.1445 5.82674 43.1995 5.8264H47.0149C47.244 5.8264 47.4317 5.97724 47.4317 6.16039V20.4773H47.4315ZM41.2142 25.7134C41.2142 26.4706 40.7419 27.7392 37.5779 27.7392C31.4463 27.7392 27.6822 23.9707 27.6822 21.2679C27.6822 21.2679 27.6754 12.5286 27.6754 6.16055C27.6748 6.11735 27.685 6.07447 27.7056 6.03439C27.7262 5.99431 27.7567 5.95782 27.7953 5.92702C27.8339 5.89622 27.8799 5.87172 27.9307 5.85492C27.9814 5.83813 28.0359 5.82937 28.091 5.82916H31.9109C32.1403 5.82916 32.3286 5.97903 32.3286 6.16331V20.2052C32.3286 22.5253 34.6693 24.4071 37.5547 24.4071H41.2163L41.2142 25.7134ZM47.3045 4.56708H42.9094C41.9749 4.56708 41.2138 5.17936 41.2138 5.93048V23.1457H37.552C35.5317 23.1457 33.8944 21.8289 33.8944 20.2049V5.93048C33.8944 5.17758 33.1344 4.56643 32.198 4.56643H27.801C26.8647 4.56643 26.1049 5.17758 26.1034 5.93048C26.1012 12.1547 26.1103 21.2682 26.1103 21.2682C26.1109 26.0585 32.7889 29 37.5766 29C40.7881 29 42.7827 27.7379 42.7827 25.7047V24.4068H44.1315C46.4975 24.4068 49 22.3874 49 20.4773V5.93048C49.0023 5.17758 48.2425 4.56643 47.3047 4.56643V4.56708H47.3045ZM21.3287 22.8396C21.3293 22.8827 21.319 22.9256 21.2983 22.9656C21.2777 23.0056 21.2473 23.042 21.2087 23.0727C21.1701 23.1034 21.1241 23.1279 21.0734 23.1446C21.0227 23.1614 20.9683 23.1701 20.9133 23.1703H17.0934C16.861 23.1703 16.6747 23.0192 16.6757 22.837V8.79497C16.6757 6.47506 14.3344 4.59322 11.4496 4.59322H7.78783V3.28664C7.78783 2.53099 8.26015 1.26078 11.4242 1.26078C17.556 1.26078 21.3211 5.02918 21.3211 7.73211C21.3211 7.73211 21.3279 16.5138 21.3279 22.8394H21.3287V22.8396ZM1.9853 23.1733C1.75287 23.1679 1.56701 23.021 1.5697 22.8386V8.5243C1.5697 7.32781 3.38942 5.8553 4.86867 5.8553H6.21731C6.21524 16.3399 6.21524 21.7048 6.21731 22.838C6.21836 22.9255 6.17515 23.0099 6.09715 23.0725C6.01914 23.1351 5.91269 23.1709 5.80108 23.1721H1.98592L1.9853 23.1733ZM22.8889 7.73227C22.8897 2.94145 16.2115 0 11.4244 0C8.21213 0 6.21731 1.26192 6.21731 3.29525V4.59322H4.86928C2.50253 4.59322 0 6.61258 0 8.52284V23.0695C0 23.8224 0.759804 24.4336 1.69574 24.4336H6.09002C6.11734 24.4336 6.14073 24.4277 6.16805 24.4277C7.06611 24.3938 7.78556 23.8005 7.78556 23.0695V5.85433H11.448C13.4674 5.85433 15.1056 7.17113 15.1056 8.79513V23.0697C15.1056 23.8226 15.8656 24.4337 16.8014 24.4337H21.1992C22.1355 24.4337 22.8949 23.8242 22.8949 23.0697C22.8982 16.7294 22.8895 7.73195 22.8895 7.73195L22.8889 7.73227Z" fill="white"/>
</svg>
